<?xml version="1.0" encoding="utf-8"?>
<!-- Generator: Adobe Illustrator 27.5.0, SVG Export Plug-In . SVG Version: 6.00 Build 0)  -->
<svg version="1.1" id="Layer_1" xmlns="http://www.w3.org/2000/svg" xmlns:xlink="http://www.w3.org/1999/xlink" x="0px" y="0px"
	 viewBox="0 0 2807 1604" style="enable-background:new 0 0 2807 1604;" xml:space="preserve">
<g>
	<rect style="fill:#FFFFFF;" width="2806.243" height="1603.568"/>
	<defs>
		<filter id="Adobe_OpacityMaskFilter" filterUnits="userSpaceOnUse" x="89.01" y="324.582" width="2647.455" height="1177.044">
			<feColorMatrix  type="matrix" values="1 0 0 0 0  0 1 0 0 0  0 0 1 0 0  0 0 0 1 0"/>
		</filter>
	</defs>
	<mask maskUnits="userSpaceOnUse" x="89.01" y="324.582" width="2647.455" height="1177.044" id="SVGID_1_">
		<g style="filter:url(#Adobe_OpacityMaskFilter);">
			
				<linearGradient id="SVGID_00000100353738724717704440000010817836264843693210_" gradientUnits="userSpaceOnUse" x1="144.4356" y1="1467.6357" x2="2409.2571" y2="486.4851">
				<stop  offset="0" style="stop-color:#000000"/>
				<stop  offset="0.0683" style="stop-color:#1E1E1E"/>
				<stop  offset="0.2134" style="stop-color:#595959"/>
				<stop  offset="0.3583" style="stop-color:#8C8C8C"/>
				<stop  offset="0.4996" style="stop-color:#B5B5B5"/>
				<stop  offset="0.6367" style="stop-color:#D5D5D5"/>
				<stop  offset="0.7683" style="stop-color:#ECECEC"/>
				<stop  offset="0.892" style="stop-color:#FAFAFA"/>
				<stop  offset="1" style="stop-color:#FFFFFF"/>
			</linearGradient>
			
				<rect x="-140.16" y="49.894" style="fill:url(#SVGID_00000100353738724717704440000010817836264843693210_);" width="3188.738" height="1700.66"/>
		</g>
	</mask>
	<g style="mask:url(#SVGID_1_);">
		<path d="M89.01,1501.626c11.737-25.734,25.875-50.318,40.65-74.444l11.286-17.986c3.815-5.962,7.872-11.762,11.797-17.654
			c3.988-5.848,7.846-11.792,11.943-17.566l12.463-17.201c33.423-45.744,69.827-89.322,108.48-130.846
			c77.831-82.552,164.431-156.865,256.971-222.84c92.585-65.981,191.258-123.392,293.597-173.119
			c12.796-6.216,25.437-12.791,38.37-18.715l39.052-17.217c26.084-11.374,51.914-23.441,78.624-33.28
			c26.547-10.247,52.973-20.894,79.658-30.818l80.837-27.582c108.416-34.672,218.505-64.946,330.305-86.814
			c111.456-23.908,224.418-39.372,337.551-52.855l10.604-1.323l10.633-0.95l21.273-1.841l42.556-3.68
			c28.378-2.39,56.753-5.044,85.156-7.213l85.315-4.217l42.675-2.104l21.343-1.051l10.672-0.511l10.673-0.146l85.407-1.166
			l42.719-0.579l21.364-0.289l10.683-0.144l10.671,0.198l170.809,3.571l-4.056,78.08l-168.209-8.367l-10.518-0.5l-10.518-0.159
			l-21.04-0.318l-42.087-0.639l-84.207-1.284l-10.529-0.161l-10.517,0.202l-21.036,0.433l-42.079,0.865l-84.194,1.723
			c-28.019,1.333-56.013,3.147-84.034,4.694l-42.031,2.414l-21.021,1.206l-10.508,0.632l-10.469,1.004
			c-111.725,10.076-223.499,22.084-333.881,42.472c-110.782,18.358-219.979,45.052-327.832,76.134l-80.458,24.885
			c-26.57,9.023-52.897,18.765-79.378,28.114c-26.653,8.944-52.414,20.104-78.47,30.581l-39.031,15.875
			c-12.93,5.476-25.566,11.6-38.369,17.37c-102.398,46.157-201.499,100.042-294.968,162.671
			c-93.421,62.628-181.363,133.769-261.037,213.534c-39.571,40.131-77.019,82.412-111.609,126.998l-12.908,16.775
			c-4.247,5.634-8.256,11.439-12.398,17.152c-4.08,5.756-8.293,11.426-12.266,17.257l-11.766,17.604
			C116.296,1452.125,101.481,1476.246,89.01,1501.626z"/>
		<path d="M316.684,1264.823c36.311-33.497,75.152-64.155,114.641-93.847c39.661-29.485,80.364-57.588,121.965-84.314
			c83.221-53.419,169.881-101.613,259.405-143.913c89.402-42.585,181.814-78.865,276.081-109.597
			c94.466-30.114,190.938-54.223,288.714-71.637l3.761,22.687c-97.028,15.347-193.05,37.363-287.348,65.418
			c-94.101,28.672-186.625,62.928-276.385,103.567c-89.881,40.354-177.14,86.68-261.167,138.342
			c-42.004,25.849-83.163,53.1-123.331,81.768C393.024,1202.174,353.632,1232.042,316.684,1264.823z"/>
		<path d="M811.908,998.198c54.001-24.247,110.059-43.728,166.509-61.644l42.482-13.083l42.839-11.856l21.44-5.891
			c7.143-1.989,14.29-3.963,21.514-5.609l43.234-10.417c115.444-27.301,232.685-46.829,350.614-61.205l88.683-8.636l22.183-2.159
			l11.094-1.079l11.117-0.682l44.487-2.643l44.507-2.642l22.261-1.32l11.133-0.66c3.712-0.164,7.427-0.177,11.141-0.273
			l89.173-1.829l44.615-0.886l44.596,0.859l89.248,1.728c7.435,0.229,14.893,0.099,22.311,0.625l22.271,1.336l44.557,2.676
			l89.166,5.366l-4.959,50.347l-87.778-8.419l-43.916-4.216l-21.964-2.11c-7.318-0.783-14.671-0.911-22.006-1.4l-88.111-4.846
			l-44.084-2.428l-44.124-0.69l-88.306-1.34c-3.681-0.036-7.364-0.155-11.042-0.124l-11.034,0.262l-22.071,0.524l-44.156,1.046
			l-44.177,1.044l-11.046,0.282l-11.021,0.679l-22.047,1.357l-88.24,5.425c-117.427,10.092-234.571,25.323-350.374,48.386
			l-43.394,8.831c-7.256,1.383-14.433,3.093-21.608,4.818l-21.546,5.104l-43.091,10.287l-42.778,11.524
			C923.32,958.467,866.724,975.897,811.908,998.198z"/>
		<path d="M1561.072,545.964c58.766-19.859,118.836-35.739,179.182-50.226c60.399-14.337,121.27-26.742,182.441-37.588l45.967-7.614
			l22.999-3.757l23.063-3.321l46.141-6.622l46.27-5.688l23.141-2.844c7.718-0.921,15.459-1.602,23.188-2.416l46.403-4.693
			c30.955-2.944,61.986-5.012,92.994-7.561l1.186,22.966c-30.859,1.581-61.766,2.681-92.62,4.656l-46.27,3.239
			c-7.71,0.571-15.434,1.01-23.135,1.689l-23.098,2.117l-46.21,4.236l-46.118,5.172l-23.065,2.596l-23.008,3.032l-46.017,6.167
			c-61.258,8.92-122.315,19.408-183.005,31.846C1680.857,513.941,1620.412,527.935,1561.072,545.964z"/>
		<path d="M933.162,707.846c56.639-35.288,115.837-66.389,175.695-96.001c59.957-29.466,120.974-56.809,182.682-82.579
			l46.529-18.723l23.301-9.295l23.469-8.852l46.975-17.661l47.338-16.679l23.679-8.341l23.84-7.854l47.734-15.604
			c31.898-10.177,64.078-19.448,96.131-29.221l8.287,31.109c-32.116,8.402-64.397,16.307-96.428,25.124l-47.96,13.57l-23.973,6.841
			l-23.824,7.331l-47.668,14.667l-47.354,15.663l-23.679,7.859l-23.521,8.304l-47.013,16.753
			c-62.386,23.154-124.217,47.924-185.135,74.878C1051.437,646.242,991.156,674.875,933.162,707.846z"/>
		<path d="M199.287,1282.936c38.205-51.658,79.495-101.029,122.42-148.893c42.888-47.922,87.984-93.878,134.703-138.151
			c23.139-22.388,47.398-43.56,71.441-64.996c12.148-10.571,24.668-20.711,36.99-31.09l18.557-15.487l19.062-14.866l38.215-29.65
			l39.354-28.163l19.706-14.061l20.283-13.227l40.591-26.463l9.502,15.752l-40.745,25.204l-20.385,12.606l-19.84,13.458
			l-39.669,26.977l-38.611,28.511l-19.279,14.307l-18.796,14.943c-12.486,10.019-25.175,19.801-37.504,30.023
			c-24.409,20.741-49.06,41.236-72.628,62.976c-47.57,42.971-93.63,87.717-137.563,134.51
			C281.118,1183.898,238.71,1232.21,199.287,1282.936z"/>
		<polygon points="2657.847,724.387 2553.389,648.053 2441.02,712.173 2481.339,589.24 2385.633,502.184 2515.009,502.541 
			2568.229,384.618 2607.868,507.771 2736.466,521.946 2631.59,597.703 		"/>
		<polygon points="2330.495,464.223 2297.115,442.058 2263.242,463.458 2274.007,424.864 2243.187,399.261 2283.219,397.573 
			2298.044,360.349 2312.021,397.9 2352.004,400.498 2320.609,425.394 		"/>
		<polygon points="1727.859,452.274 1679.465,434.621 1643.569,471.57 1645.403,420.089 1599.17,397.367 1648.698,383.203 
			1656.021,332.212 1684.798,374.939 1735.556,366.146 1703.812,406.718 		"/>
		<polygon points="1433.904,816.972 1386.339,797.192 1348.842,832.514 1352.955,781.165 1307.775,756.417 1357.882,744.461 
			1367.457,693.845 1394.312,737.805 1445.41,731.27 1411.899,770.395 		"/>
		<polygon points="808.177,785.376 771.411,782.349 753.616,814.664 745.134,778.761 708.901,771.824 740.426,752.662 
			735.827,716.059 763.792,740.119 797.183,724.434 782.942,758.466 		"/>
		<polygon points="2285.791,931.661 2221.323,879.207 2147.097,916.595 2177.062,839.073 2118.566,780.033 2201.553,784.576 
			2239.629,710.699 2260.952,791.029 2342.979,804.411 2273.17,849.514 		"/>
		<polygon points="872.333,758.502 862.464,754.123 854.432,761.338 855.548,750.599 846.204,745.19 856.762,742.932 
			859.019,732.374 864.429,741.718 875.168,740.602 867.953,748.634 		"/>
		<polygon points="1236.176,509.127 1214.453,503.177 1200.141,520.569 1199.087,498.07 1178.124,489.834 1199.196,481.879 
			1200.551,459.396 1214.628,476.978 1236.43,471.32 1224.058,490.142 		"/>
		<polygon points="2072.879,368.768 2059.719,358.497 2044.964,366.308 2050.666,350.618 2038.678,339 2055.362,339.573 
			2062.707,324.582 2067.317,340.627 2083.845,342.98 2070.01,352.322 		"/>
		<polygon points="2453.075,391.98 2463.354,418.667 2491.912,420.197 2469.707,438.22 2477.077,465.853 2453.075,450.304 
			2429.072,465.853 2436.442,438.22 2414.238,420.197 2442.795,418.667 		"/>
		<polygon points="2335.882,719.771 2340.829,732.615 2354.573,733.352 2343.887,742.026 2347.433,755.325 2335.882,747.841 
			2324.33,755.325 2327.877,742.026 2317.19,733.352 2330.935,732.615 		"/>
		<polygon points="1986.285,751.504 1947.399,728.804 1910.784,755.011 1920.357,711.014 1884.118,684.29 1928.92,679.797 
			1943.137,637.074 1961.255,678.295 2006.281,678.615 1972.675,708.583 		"/>
		<polygon points="1477.375,930.204 1465.244,922.605 1453.349,930.569 1456.827,916.683 1445.577,907.831 1459.858,906.848 
			1464.8,893.413 1470.148,906.692 1484.453,907.241 1473.476,916.43 		"/>
		<polygon points="1071.416,903.211 1059.318,898.505 1050.078,907.621 1050.815,894.661 1039.289,888.69 1051.842,885.387 
			1053.96,872.58 1060.981,883.498 1073.815,881.554 1065.601,891.605 		"/>
		<polygon points="1593.205,730.567 1571.516,722.047 1554.873,738.359 1556.272,715.098 1535.616,704.31 1558.172,698.453 
			1562.049,675.474 1574.589,695.116 1597.641,691.702 1582.835,709.698 		"/>
		<polygon points="1748.554,789.845 1751.938,774.735 1739.533,765.469 1754.949,764.019 1759.927,749.357 1766.071,763.57 
			1781.554,763.774 1769.935,774.009 1774.525,788.798 1761.2,780.91 		"/>
		<polygon points="1493.069,580.426 1469.288,568.997 1449.134,586.026 1452.656,559.878 1430.232,545.973 1456.189,541.241 
			1462.484,515.618 1475.005,538.843 1501.319,536.911 1483.101,555.997 		"/>
		<polygon points="695.687,1069.455 685.614,1067.199 679.436,1075.469 678.469,1065.192 668.694,1061.872 678.17,1057.777 
			678.306,1047.455 685.129,1055.201 694.988,1052.141 689.73,1061.024 		"/>
		<polygon points="642.716,910.445 631.307,908.703 625.053,918.403 623.184,907.015 612.026,904.064 622.28,898.767 
			621.638,887.243 629.844,895.359 640.606,891.187 635.424,901.5 		"/>
		<polygon points="835.539,922.028 822.108,919.02 813.872,930.047 812.583,916.344 799.55,911.918 812.184,906.457 
			812.366,892.695 821.463,903.023 834.608,898.943 827.597,910.787 		"/>
		<polygon points="1231.898,776.028 1217.095,769.458 1205.046,780.281 1206.721,764.172 1192.704,756.058 1208.542,752.672 
			1211.928,736.834 1220.042,750.851 1236.151,749.177 1225.328,761.225 		"/>
	</g>
</g>
</svg>
